<?xml version="1.0" encoding="utf-8"?>
<COLLADA xmlns="http://www.collada.org/2005/11/COLLADASchema" version="1.4.1" xmlns:xsi="http://www.w3.org/2001/XMLSchema-instance">
  <asset>
    <contributor>
      <author>Blender User</author>
      <authoring_tool>Blender 3.6.23 commit date:2025-06-16, commit time:11:52, hash:e467db79ca8c</authoring_tool>
    </contributor>
    <created>2026-08-03T08:30:04</created>
    <modified>2026-08-03T08:30:04</modified>
    <unit name="meter" meter="1"/>
    <up_axis>Z_UP</up_axis>
  </asset>
  <library_effects>
    <effect id="Material_001-effect">
      <profile_COMMON>
        <newparam sid="Image_0-surface">
          <surface type="2D">
            <init_from>Image_0.png</init_from>
          </surface>
        </newparam>
        <newparam sid="Image_0-sampler">
          <sampler2D>
            <source>Image_0-surface</source>
          </sampler2D>
        </newparam>
        <technique sid="common">
          <lambert>
            <emission>
              <color sid="emission">0 0 0 1</color>
            </emission>
            <diffuse>
              <texture texture="Image_0-sampler" texcoord="UVMap"/>
            </diffuse>
            <index_of_refraction>
              <float sid="ior">1.5</float>
            </index_of_refraction>
          </lambert>
        </technique>
      </profile_COMMON>
    </effect>
  </library_effects>
  <library_images>
    <image id="Image_0" name="Image_0">
      <init_from>Image_0.png</init_from>
    </image>
  </library_images>
  <library_materials>
    <material id="Material_001-material" name="Material.001">
      <instance_effect url="#Material_001-effect"/>
    </material>
  </library_materials>
  <library_geometries>
    <geometry id="Object_0-mesh" name="Object_0">
      <mesh>
        <source id="Object_0-mesh-positions">
          <float_array id="Object_0-mesh-positions-array" count="1374">1.167775 -6.389493 0.26 1.167774 -6.389493 0.1 0.4586841 -6.389493 0.1 0.4586841 -6.389493 0.26 1.167775 -6.682206 0.26 0.4586841 -6.788285 0.26 0.4586841 -6.788285 0.1 1.167774 -6.682206 0.1 1.167774 -6.389493 0.1 1.167774 -6.682206 0.1 0.4586841 -6.788285 0.1 0.4586841 -6.389493 0.1 0.4586841 -6.788285 0.26 0.4586841 -6.389493 0.26 0.3564451 -6.389493 0.26 0.356444 -6.788285 0.26 1.167775 -6.682206 0.26 1.167775 -6.389493 0.26 1.876865 -6.635531 0.26 1.876865 -6.389493 0.26 1.876865 -6.389493 0.1 1.876865 -6.635531 0.1 1.876865 -6.635531 0.26 1.876865 -6.635531 0.1 1.876865 -6.389493 0.26 1.876865 -6.389493 0.1 0.356444 -6.389493 0.1 0.356444 -6.788285 0.1 0.356444 -6.788285 0.26 0.3564451 -6.389493 0.26 0.356444 -6.389493 0.1 0.3564451 -6.389493 0.26 0.356444 -6.788285 0.26 0.356444 -6.788285 0.1 0.356444 -6.788285 0.1 0.356444 -6.389493 0.1 2.585955 -6.389493 0.26 3.295046 -6.389493 0.26 3.295046 -6.389493 0.1 2.585956 -6.389493 0.1 2.585955 -6.682206 0.26 2.585956 -6.682206 0.1 3.295046 -6.788285 0.1 3.295046 -6.788285 0.26 2.585956 -6.389493 0.1 3.295046 -6.389493 0.1 3.295046 -6.788285 0.1 2.585956 -6.682206 0.1 3.295046 -6.788285 0.26 3.397286 -6.788285 0.26 3.397285 -6.389493 0.26 3.295046 -6.389493 0.26 2.585955 -6.682206 0.26 2.585955 -6.389493 0.26 3.397286 -6.389493 0.1 3.397285 -6.389493 0.26 3.397286 -6.788285 0.26 3.397286 -6.788285 0.1 3.397285 -6.389493 0.26 3.397286 -6.389493 0.1 3.397286 -6.788285 0.1 3.397286 -6.788285 0.26 3.397286 -6.389493 0.1 3.397286 -6.788285 0.1 1.167775 -7.189493 0.26 1.167774 -7.189493 0.1 0.4586841 -7.189493 0.1 0.4586841 -7.189493 0.26 1.167775 -7.482206 0.26 0.4586841 -7.588285 0.26 0.4586841 -7.588285 0.1 1.167774 -7.482206 0.1 1.167774 -7.189493 0.1 1.167774 -7.482206 0.1 0.4586841 -7.588285 0.1 0.4586841 -7.189493 0.1 0.4586841 -7.588285 0.26 0.4586841 -7.189493 0.26 0.3564451 -7.189493 0.26 0.356444 -7.588285 0.26 1.167775 -7.482206 0.26 1.167775 -7.189493 0.26 1.876865 -7.435531 0.26 1.876865 -7.189493 0.26 1.876865 -7.189493 0.1 1.876865 -7.435531 0.1 1.876865 -7.435531 0.26 1.876865 -7.435531 0.1 1.876865 -7.189493 0.26 1.876865 -7.189493 0.1 0.356444 -7.189493 0.1 0.356444 -7.588285 0.1 0.356444 -7.588285 0.26 0.3564451 -7.189493 0.26 0.356444 -7.189493 0.1 0.3564451 -7.189493 0.26 0.356444 -7.588285 0.26 0.356444 -7.588285 0.1 0.356444 -7.588285 0.1 0.356444 -7.189493 0.1 2.585955 -7.189493 0.26 3.295046 -7.189493 0.26 3.295046 -7.189493 0.1 2.585956 -7.189493 0.1 2.585955 -7.482206 0.26 2.585956 -7.482206 0.1 3.295046 -7.588285 0.1 3.295046 -7.588285 0.26 2.585956 -7.189493 0.1 3.295046 -7.189493 0.1 3.295046 -7.588285 0.1 2.585956 -7.482206 0.1 3.295046 -7.588285 0.26 3.397286 -7.588285 0.26 3.397285 -7.189493 0.26 3.295046 -7.189493 0.26 2.585955 -7.482206 0.26 2.585955 -7.189493 0.26 3.397286 -7.189493 0.1 3.397285 -7.189493 0.26 3.397286 -7.588285 0.26 3.397286 -7.588285 0.1 3.397285 -7.189493 0.26 3.397286 -7.189493 0.1 3.397286 -7.588285 0.1 3.397286 -7.588285 0.26 3.397286 -7.189493 0.1 3.397286 -7.588285 0.1 0.1036499 -3.056938 0.248381 0.1036499 -3.056938 0.325326 0.1036499 -2.73301 0.325326 0.1036499 -2.73301 0.248381 0.1036499 -3.056938 0.325326 3.65008 -3.056938 0.325326 3.65008 -2.73301 0.325326 0.1036499 -2.73301 0.325326 3.65008 -3.056938 0.325326 3.65008 -3.056938 0.248381 3.65008 -2.73301 0.248381 3.65008 -2.73301 0.325326 3.65008 -3.056938 0.248381 0.1036499 -3.056938 0.248381 0.1036499 -2.73301 0.248381 3.65008 -2.73301 0.248381 0.1036499 -2.73301 0.248381 0.1036499 -2.73301 0.325326 3.65008 -2.73301 0.325326 3.65008 -2.73301 0.248381 3.65008 -3.056938 0.248381 3.65008 -3.056938 0.325326 0.1036499 -3.056938 0.325326 0.1036499 -3.056938 0.248381 0.4256431 -3.772821 3.571001 0.06920003 -3.772821 3.571001 0.06920397 0 3.571001 0.425647 0 3.571001 0.06920003 -3.772821 3.831001 0.06920099 -3.772821 3.931001 0.06920504 0 3.931001 0.06920397 0 3.831001 0.06920397 0 3.671002 0.06920397 0 3.571001 0.06920003 -3.772821 3.571001 0.425648 0 3.831 0.425648 0 3.671001 0.425647 0 3.571001 0.06920397 0 3.571001 0.06920397 0 3.671002 0.06920397 0 3.831001 0.06920504 0 3.931001 0.4256491 0 3.931 0.06920099 -3.772821 3.931001 0.425645 -3.772821 3.931 0.4256491 0 3.931 0.06920504 0 3.931001 0.4256431 -3.772821 3.571001 0.425648 0 3.671001 0.425644 -3.772821 3.671001 0.425648 0 3.831 0.425644 -3.772821 3.831 0.4256491 0 3.931 0.425645 -3.772821 3.931 0.425647 0 3.571001 3.30556 -3.772821 3.571001 3.305556 0 3.571001 3.662 0 3.571001 3.662004 -3.772821 3.571001 3.662004 -3.772821 3.571001 3.661999 0 3.671002 3.662003 -3.772821 3.671002 3.661999 0 3.831001 3.662003 -3.772821 3.831001 3.661999 0 3.931001 3.662003 -3.772821 3.931001 3.662 0 3.571001 3.661999 0 3.931001 3.661999 0 3.671002 3.305556 0 3.571001 3.305556 0 3.671001 3.305555 0 3.831 3.305555 0 3.931 3.662 0 3.571001 3.662003 -3.772821 3.931001 3.661999 0 3.931001 3.305555 0 3.931 3.305559 -3.772821 3.931 3.305559 -3.772821 3.831 3.305559 -3.772821 3.931 3.305555 0 3.931 3.305555 0 3.831 3.305556 0 3.671001 3.305556 0 3.571001 3.30556 -3.772821 3.571001 3.30556 -3.772821 3.671001 1.167775 -7.989493 0.26 1.167774 -7.989493 0.1 0.4586841 -7.989493 0.1 0.4586841 -7.989493 0.26 1.167775 -8.282206 0.26 0.4586841 -8.388285 0.26 0.4586841 -8.388285 0.1 1.167774 -8.282206 0.1 1.167774 -7.989493 0.1 1.167774 -8.282206 0.1 0.4586841 -8.388285 0.1 0.4586841 -7.989493 0.1 0.4586841 -8.388285 0.26 0.4586841 -7.989493 0.26 0.3564451 -7.989493 0.26 0.356444 -8.388285 0.26 1.167775 -8.282206 0.26 1.167775 -7.989493 0.26 1.876865 -8.235531 0.26 1.876865 -7.989493 0.26 1.876865 -7.989493 0.1 1.876865 -8.235531 0.1 1.876865 -8.235531 0.26 1.876865 -8.235531 0.1 1.876865 -7.989493 0.26 1.876865 -7.989493 0.1 0.356444 -8.388285 0.26 0.3564451 -7.989493 0.26 0.3564451 -7.989493 0.36 0.3564451 -8.388285 0.36 0.356444 -7.989493 0.1 0.3564451 -7.989493 0.26 0.356444 -8.388285 0.26 0.356444 -8.388285 0.1 0.356444 -8.388285 0.1 0.356444 -7.989493 0.1 0 -8.388285 0.100001 1.07288e-6 -8.388285 0.260001 1.07288e-6 -8.388285 0.360001 1.07288e-6 -7.989493 0.360001 1.07288e-6 -7.989493 0.260001 0 -7.989493 0.100001 0 -7.989493 1.01328e-6 0 -8.388285 1.01328e-6 0.356444 -7.989493 0 0.356444 -8.388285 0 0 -8.388285 1.01328e-6 0 -7.989493 1.01328e-6 0.356444 -7.989493 0.1 0.356444 -8.388285 0.1 0.356444 -8.388285 0 0.356444 -7.989493 0 0.3564451 -8.388285 0.36 0.3564451 -7.989493 0.36 1.07288e-6 -7.989493 0.360001 1.07288e-6 -8.388285 0.360001 0.05091905 -8.512324 0.308575 0.305526 -8.512326 0.308574 0.3564451 -4.106552 0.1434 1.07288e-6 -4.106551 0.143401 5.00679e-6 -0.01932621 0.143401 0.356449 -0.01932621 0.1434 1.07288e-6 -4.106551 0.143401 2.02656e-6 -4.106551 0.5034 0.356446 -4.106552 0.5034 2.02656e-6 -4.106551 0.5034 6.07967e-6 -0.01932621 0.5034 6.07967e-6 -0.01932621 0.403401 5.00679e-6 -0.01932621 0.243401 5.00679e-6 -0.01932621 0.143401 6.07967e-6 -0.01932621 0.403401 6.07967e-6 -0.01932621 0.5034 0.3564501 -0.01932621 0.5034 0.356449 -0.01932621 0.2434 0.356449 -0.01932621 0.1434 5.00679e-6 -0.01932621 0.143401 5.00679e-6 -0.01932621 0.243401 0.3564501 -0.01932621 0.4034 0.3564501 -0.01932621 0.5034 6.07967e-6 -0.01932621 0.5034 0.3564451 -4.106552 0.1434 0.356446 -4.106552 0.5034 0.356449 -0.01932621 0.1434 0.356449 -0.01932621 0.2434 0.3564501 -0.01932621 0.4034 0.3564501 -0.01932621 0.5034 0.305526 -8.512326 0.122857 0.305526 -8.512326 0.308574 0.05091905 -8.512324 0.308575 0.05091905 -8.512324 0.237145 0.05091905 -8.512324 0.122857 0.05091798 -8.512324 0.05142796 0.3055251 -8.512326 0.051427 0.305526 -8.512326 0.122857 0.3055251 -8.512326 0.051427 0.05091905 -8.512324 0.237145 0.05091905 -8.512324 0.308575 0.3055251 -8.512326 0.051427 0.05091798 -8.512324 0.05142796 0.05091905 -8.512324 0.122857 0.305526 -8.512326 0.237144 0.05091798 -8.512324 0.05142796 0.305526 -8.512326 0.308574 2.585955 -7.989493 0.26 3.295046 -7.989493 0.26 3.295046 -7.989493 0.1 2.585956 -7.989493 0.1 2.585955 -8.282206 0.26 2.585956 -8.282206 0.1 3.295046 -8.388285 0.1 3.295046 -8.388285 0.26 2.585956 -7.989493 0.1 3.295046 -7.989493 0.1 3.295046 -8.388285 0.1 2.585956 -8.282206 0.1 3.295046 -8.388285 0.26 3.397286 -8.388285 0.26 3.397285 -7.989493 0.26 3.295046 -7.989493 0.26 2.585955 -8.282206 0.26 2.585955 -7.989493 0.26 3.397286 -8.388285 0.26 3.397285 -8.388285 0.36 3.397285 -7.989493 0.36 3.397285 -7.989493 0.26 3.397285 -7.989493 0.26 3.397286 -7.989493 0.1 3.397286 -8.388285 0.1 3.397286 -8.388285 0.26 3.397286 -7.989493 0.1 3.397286 -8.388285 0.1 3.75373 -8.388285 1.01328e-6 3.75373 -7.989493 0.100001 3.75373 -8.388285 0.100001 3.753729 -7.989493 0.260001 3.753729 -8.388285 0.260001 3.753729 -7.989493 0.360001 3.753729 -8.388285 0.360001 3.75373 -7.989493 1.01328e-6 3.397286 -7.989493 0 3.75373 -7.989493 1.01328e-6 3.75373 -8.388285 1.01328e-6 3.397286 -8.388285 0 3.397286 -7.989493 0.1 3.397286 -7.989493 0 3.397286 -8.388285 0 3.397286 -8.388285 0.1 3.397285 -8.388285 0.36 3.753729 -8.388285 0.360001 3.753729 -7.989493 0.360001 3.397285 -7.989493 0.36 3.448204 -8.512326 0.308574 3.702811 -8.512324 0.308575 3.397285 -4.106552 0.1434 3.397281 -0.01932621 0.1434 3.753725 -0.01932621 0.143401 3.753729 -4.106551 0.143401 3.753729 -4.106551 0.143401 3.753728 -4.106551 0.5034 3.753728 -4.106551 0.5034 3.397284 -4.106552 0.5034 3.753725 -0.01932621 0.143401 3.753725 -0.01932621 0.243401 3.753724 -0.01932621 0.403401 3.753724 -0.01932621 0.5034 3.753725 -0.01932621 0.243401 3.753725 -0.01932621 0.143401 3.753724 -0.01932621 0.403401 3.397281 -0.01932621 0.1434 3.753724 -0.01932621 0.5034 3.397281 -0.01932621 0.2434 3.39728 -0.01932621 0.4034 3.39728 -0.01932621 0.5034 3.753724 -0.01932621 0.5034 3.39728 -0.01932621 0.5034 3.397285 -4.106552 0.1434 3.397284 -4.106552 0.5034 3.39728 -0.01932621 0.5034 3.39728 -0.01932621 0.4034 3.397281 -0.01932621 0.2434 3.397281 -0.01932621 0.1434 0.08776199 -3.824572 0.238338 3.665968 -3.824572 0.238338 3.665968 -3.824572 4.049156 0.08776199 -3.824572 4.049156 0.01685297 -3.777717 4.099156 0.01685297 -3.562253 4.099156 0.01685297 -3.562253 0.188338 0.01685297 -3.777717 0.188338 3.736877 -3.777717 0.188338 3.736877 -3.562253 0.188338 3.736877 -3.562253 4.099156 3.736877 -3.777717 4.099156 3.736877 -3.562253 0.188338 0.01685297 -3.562253 0.188338 0.01685297 -3.562253 4.099156 3.736877 -3.562253 4.099156 3.736877 -3.777717 4.099156 3.736877 -3.562253 4.099156 0.01685297 -3.562253 4.099156 0.01685297 -3.777717 4.099156 3.665968 -3.824572 0.238338 3.665968 -3.824572 4.049156 3.665968 -3.824572 4.049156 0.08776199 -3.824572 4.049156 0.08776199 -3.824572 4.049156 0.08776199 -3.824572 0.238338 0.08776199 -3.824572 0.238338 0.01685297 -3.777717 0.188338 3.736877 -3.777717 0.188338 3.665968 -3.824572 0.238338 0.01685297 -3.562253 0.188338 3.736877 -3.562253 0.188338 3.448204 -8.512326 0.122857 3.448205 -8.512326 0.051427 3.702812 -8.512324 0.05142796 3.702811 -8.512324 0.122857 3.702811 -8.512324 0.237145 3.702811 -8.512324 0.308575 3.448204 -8.512326 0.308574 3.448205 -8.512326 0.051427 3.448204 -8.512326 0.122857 3.702811 -8.512324 0.308575 3.702811 -8.512324 0.237145 3.702812 -8.512324 0.05142796 3.448205 -8.512326 0.051427 3.702811 -8.512324 0.122857 3.448204 -8.512326 0.237144 3.702812 -8.512324 0.05142796 3.448204 -8.512326 0.308574 0.01685297 -3.777717 0.188338 0.01685297 -3.777717 0.188338 1.07288e-6 -8.388285 0.360001 1.07288e-6 -8.388285 0.360001 1.07288e-6 -8.388285 0.260001 0 -8.388285 0.100001 3.736877 -3.777717 4.099156 3.736877 -3.777717 4.099156 0.01685297 -3.777717 4.099156 0.01685297 -3.777717 4.099156 3.736877 -3.777717 0.188338 3.736877 -3.777717 0.188338 3.305559 -3.772821 3.831 3.30556 -3.772821 3.571001</float_array>
          <technique_common>
            <accessor source="#Object_0-mesh-positions-array" count="458" stride="3">
              <param name="X" type="float"/>
              <param name="Y" type="float"/>
              <param name="Z" type="float"/>
            </accessor>
          </technique_common>
        </source>
        <source id="Object_0-mesh-normals">
          <float_array id="Object_0-mesh-normals-array" count="684">0 1 0 0.120776 -0.9926798 -6.78069e-7 0.1296608 -0.9915584 -1.92548e-5 0.1296542 -0.9915593 0 0.09334754 -0.9956337 -1.27316e-7 0 0 -1 0 0 -1 0 0 1 0 0 1 0 0 -1 0 -1 3.559e-7 0 -1 0 0 1 -5.2422e-6 -1 0 0 -1 2.68566e-6 6.70554e-6 0 1 0 0 -1 0 -0.120776 -0.9926798 -9.10242e-7 -0.09334754 -0.9956337 -1.86731e-6 -0.1296542 -0.9915593 1.75702e-5 -0.1296608 -0.9915584 0 0 0 -1 0 0 1 0 0 -1 0 1 -1.8578e-6 1 1.86829e-6 5.96047e-6 1 0 0 0 1 1.68986e-6 0.1207763 -0.9926798 6.94285e-7 0.1296611 -0.9915584 -2.45981e-5 0.1296545 -0.9915593 0 0.0933479 -0.9956336 1.11406e-6 0 0 -1 0 0 1 0 0 1 0 0 -1 0 -1 0 0 1 1.48244e-6 -1 2.68566e-6 6.70552e-6 0 1 -4.29321e-6 -0.1207764 -0.9926798 1.49278e-7 -0.0933479 -0.9956336 1.28233e-7 -0.1296545 -0.9915593 -2.8848e-5 -0.1296612 -0.9915584 0 0 0 -1 0 0 1 0 0 -1 0 1 3.18567e-6 1 1.86829e-6 5.96047e-6 0 1 2.32346e-7 -1 1.07627e-6 9.53672e-6 -1 1.04171e-6 1.07289e-5 -1 1.04295e-6 0 -1 1.04417e-6 0 -1 1.04057e-6 0 2.83663e-6 0 1 1 -1.0269e-6 -9.53677e-6 1 -1.03678e-6 0 1 -1.03678e-6 0 1 -1.0269e-6 -1.07288e-5 1 -1.08614e-6 -9.53676e-6 1 -1.04665e-6 -9.53676e-6 1 1.10588e-6 9.53667e-6 1 9.87409e-7 0 1 1.18489e-6 0 1 1.10589e-6 0 1 9.47903e-7 0 1 9.47894e-7 1.19208e-5 -2.83663e-6 0 1 -2.83663e-6 0 1 -1 -1.10589e-6 0 -1 -1.10589e-6 0 -1 -1.38237e-6 -7.45061e-6 -1 -7.89927e-7 0 -1 -9.72214e-7 -3.66799e-6 0.120776 -0.9926798 -2.36657e-7 0.1296545 -0.9915593 5.84116e-7 0.0933476 -0.9956337 2.55055e-7 0 0 -1 0 0 -1 0 -1 4.74412e-7 0 1 -1.98726e-7 0.9903945 -0.1382713 -5.55077e-6 1 -2.80243e-6 0 1 -2.3641e-6 -1.67812e-6 0.995293 -0.09691137 -1.02464e-5 0 1 -1.37829e-6 -0.9986811 -0.05134332 -3.16019e-6 -1 0 4.12648e-6 -1 1.7008e-6 1.51777e-6 -1 1.67191e-6 2.53837e-6 -1 0 3.35276e-6 -0.995293 -0.09691166 0 -2.83512e-6 0.03349059 -0.9994391 -2.84985e-6 -0.09789592 -0.9951967 -3.97174e-6 -0.08691334 -0.9962159 -2.83837e-6 0.03347635 -0.9994396 0.9764734 -0.2156382 0 0.9962882 -0.08608031 -2.07605e-6 2.34783e-6 -0.08695912 0.9962119 -2.91854e-6 -0.03348058 0.9994394 2.76382e-6 -0.03346604 0.99944 2.86475e-6 -0.09789466 0.9951968 2.14344e-6 -0.3829824 0.9237557 8.69558e-7 -0.3829787 0.9237573 -2.7359e-6 0.01185196 -0.9999299 -2.73314e-6 0.02415657 -0.9997082 -2.78208e-6 0 -1 -2.78208e-6 0 -1 -1 2.76307e-7 0 -1 2.01359e-7 6.70552e-6 -1 0 2.6491e-6 -1 2.45606e-7 0 2.25957e-6 -0.02416104 0.9997082 0 -0.0118795 0.9999295 -1 9.91655e-7 0 -1 1.15571e-6 6.70552e-6 -1 7.29159e-7 0 -1 9.62488e-7 2.6491e-6 0 1 0 1 -1.97876e-7 -6.70552e-6 1 0 -2.6491e-6 1 -2.30256e-7 0 1 -2.68632e-7 0 1 -9.7221e-7 -2.6491e-6 1 -7.10929e-7 0 1 -1.1507e-6 -6.70552e-6 1 -1.00259e-6 0 -7.49134e-6 -1 0 -7.49134e-6 -1 0 -7.49135e-6 -1 0 -7.49134e-6 -1 -8.00887e-6 -7.49134e-6 -1 0 0.9250901 -0.3797476 -3.93241e-6 0.9250871 -0.3797552 -1.4901e-5 -0.9250893 -0.3797498 0 -0.9250892 -0.37975 0 -3.44903e-6 -0.3829881 -0.9237534 -6.50109e-6 -0.382995 -0.9237505 -0.9250868 -0.3797557 5.55668e-6 -0.9250871 -0.379755 1.12718e-5 -0.9250892 -0.3797498 0 0.9250912 -0.379745 0 -0.925088 -0.3797528 9.60377e-6 0.9250907 -0.3797461 -3.27615e-6 -0.1207761 -0.9926798 5.40339e-6 -0.09334754 -0.9956337 5.72702e-6 -0.1296545 -0.9915593 -2.82687e-5 0 0 -1 0 1 -1.76641e-7 -0.9903945 -0.1382712 -5.21228e-6 -0.995293 -0.09691137 -9.52233e-6 -1 -1.26085e-6 -1.49166e-6 -1 -1.49463e-6 0 0 1 -1.22511e-6 0.9984783 -0.05514621 0 1 0 3.72529e-6 0.9967418 -0.0806601 9.89e-6 0.995004 -0.09983593 7.25958e-6 0.9899654 -0.1413098 0 2.83432e-6 0.03349059 -0.9994391 8.59988e-6 0.03347635 -0.9994396 3.98234e-6 -0.08696454 -0.9962114 2.82511e-6 -0.09789526 -0.9951968 -0.9962882 -0.08608102 -2.08989e-6 -0.9764732 -0.215639 0 -2.32086e-6 -0.08695936 0.9962119 -2.82233e-6 -0.09789526 0.9951968 -2.76035e-6 -0.0334661 0.99944 -2.84414e-6 -0.03348058 0.9994394 -8.69558e-7 -0.3829787 0.9237571 -2.14345e-6 -0.3829832 0.9237553 2.74029e-6 0.01189947 -0.9999293 2.78208e-6 0 -1 2.73796e-6 0.02415657 -0.9997082 1 1.4391e-7 7.45058e-6 1 1.7056e-7 2.6491e-6 1 3.07007e-7 0 1 4.60511e-7 0 0 -0.0118795 0.9999295 0 -0.02420932 0.999707 1 9.72213e-7 2.6491e-6 1 2.91663e-7 0 1 1.27603e-6 5.96046e-6 1 8.74999e-7 0 0 1 0 -1 -2.30256e-7 0 -1 -1.9188e-7 -5.96047e-6 -1 -1.7056e-7 -2.6491e-6 -1 -1.53504e-7 0 -1 -1.02082e-6 0 -1 -1.09374e-6 -7.45058e-6 -1 -8.10175e-7 -2.6491e-6 -0.006389379 -0.9999047 -0.01223826 0.02517998 -0.9996148 -0.01166975 0.006389379 -0.9999047 0.01223826 -0.02517998 -0.9996148 0.01166975 0.0252031 -0.9996144 -0.01165831 0.5512956 -0.8343099 0 0.5512989 -0.8343079 0 0.006378591 -0.9999043 0.01228576 0.006429314 -0.9999041 0.01226639 0 -0.7296816 0.6837872 0 -0.7296806 0.6837882 -0.02520984 -0.999614 0.01167839 -0.02520477 -0.9996144 0.01165789 -0.551297 -0.8343091 0 -0.551297 -0.8343091 0 -0.006375908 -0.9999043 -0.01228606 -0.006429016 -0.9999041 -0.01226854 0 -0.7296802 -0.6837886 0 -0.7296794 -0.6837895 0.0252096 -0.999614 -0.01168018 7.49134e-6 -1 0 7.49134e-6 -1 -1.47253e-5 7.49135e-6 -1 0 7.4914e-6 -1 0 7.49133e-6 -1 0 -0.9250867 -0.3797558 -1.4901e-5 -0.92509 -0.3797481 -3.93241e-6 0.9250869 -0.3797557 0 0.9250887 -0.3797513 0 6.50109e-6 -0.3829949 -0.9237505 3.44903e-6 -0.3829871 -0.9237537 0.9250881 -0.3797528 8.63123e-6 -0.9250912 -0.379745 0 0.9250882 -0.3797527 9.79747e-6 -0.9250907 -0.3797461 -3.27615e-6</float_array>
          <technique_common>
            <accessor source="#Object_0-mesh-normals-array" count="228" stride="3">
              <param name="X" type="float"/>
              <param name="Y" type="float"/>
              <param name="Z" type="float"/>
            </accessor>
          </technique_common>
        </source>
        <source id="Object_0-mesh-map-0">
          <float_array id="Object_0-mesh-map-0-array" count="2136">0.523757 0.732729 0.536491 0.732729 0.536491 0.715322 0.523757 0.732729 0.536491 0.715322 0.523757 0.715322 0.554001 0.809466 0.554001 0.792059 0.541267 0.792059 0.554001 0.809466 0.541267 0.792059 0.541267 0.809466 0.336521 0.671226 0.415142 0.671226 0.443634 0.653819 0.336521 0.671226 0.443634 0.653819 0.336521 0.653819 0.443632 0.64671 0.336521 0.64671 0.336521 0.64922 0.443632 0.64671 0.336521 0.64922 0.443632 0.64922 0.41514 0.629303 0.336521 0.629303 0.336521 0.64671 0.41514 0.629303 0.336521 0.64671 0.443632 0.64671 0.402604 0.611896 0.336521 0.611896 0.336521 0.629303 0.402604 0.611896 0.336521 0.629303 0.41514 0.629303 0.336521 0.688633 0.402605 0.688633 0.415142 0.671226 0.336521 0.688633 0.415142 0.671226 0.336521 0.671226 0.554001 0.826873 0.554001 0.809466 0.541267 0.809466 0.554001 0.826873 0.541267 0.809466 0.541267 0.826873 0.523757 0.750136 0.536491 0.750136 0.536491 0.732729 0.523757 0.750136 0.536491 0.732729 0.523757 0.732729 0.501471 0.725956 0.501471 0.679136 0.488736 0.679136 0.501471 0.725956 0.488736 0.679136 0.488736 0.725956 0.523757 0.715322 0.536491 0.715322 0.536491 0.712813 0.523757 0.715322 0.536491 0.712813 0.523757 0.712813 0.541267 0.792059 0.554001 0.792059 0.554002 0.789549 0.541267 0.792059 0.554002 0.789549 0.541267 0.789549 0.336521 0.653819 0.443634 0.653819 0.443634 0.651309 0.336521 0.653819 0.443634 0.651309 0.336521 0.651309 0.523757 0.767543 0.523757 0.78495 0.536491 0.78495 0.523757 0.767543 0.536491 0.78495 0.536491 0.767543 0.554001 0.84428 0.541267 0.84428 0.541267 0.861687 0.554001 0.84428 0.541267 0.861687 0.554001 0.861687 0.336521 0.70604 0.336521 0.723447 0.443634 0.723447 0.336521 0.70604 0.443634 0.723447 0.415142 0.70604 0.443632 0.577082 0.443632 0.574572 0.336521 0.574572 0.443632 0.577082 0.336521 0.574572 0.336521 0.577082 0.41514 0.594489 0.443632 0.577082 0.336521 0.577082 0.41514 0.594489 0.336521 0.577082 0.336521 0.594489 0.402604 0.611896 0.41514 0.594489 0.336521 0.594489 0.402604 0.611896 0.336521 0.594489 0.336521 0.611896 0.336521 0.688633 0.336521 0.70604 0.415142 0.70604 0.336521 0.688633 0.415142 0.70604 0.402605 0.688633 0.554001 0.826873 0.541267 0.826873 0.541267 0.84428 0.554001 0.826873 0.541267 0.84428 0.554001 0.84428 0.523757 0.750136 0.523757 0.767543 0.536491 0.767543 0.523757 0.750136 0.536491 0.767543 0.536491 0.750136 0.31071 0.771567 0.323445 0.771567 0.323445 0.724747 0.31071 0.771567 0.323445 0.724747 0.31071 0.724747 0.523757 0.78495 0.523757 0.78746 0.536491 0.78746 0.523757 0.78495 0.536491 0.78746 0.536491 0.78495 0.541267 0.861687 0.541267 0.864197 0.554001 0.864197 0.541267 0.861687 0.554001 0.864197 0.554001 0.861687 0.336521 0.723447 0.336521 0.725957 0.443634 0.725957 0.336521 0.723447 0.443634 0.725957 0.443634 0.723447 0.541267 0.732729 0.554001 0.732729 0.554001 0.715322 0.541267 0.732729 0.554001 0.715322 0.541267 0.715322 0.536491 0.809466 0.536491 0.792059 0.523757 0.792059 0.536491 0.809466 0.523757 0.792059 0.523757 0.809466 0.159511 0.729248 0.238133 0.729248 0.266625 0.711841 0.159511 0.729248 0.266625 0.711841 0.159511 0.711841 0.266622 0.704732 0.159511 0.704732 0.159511 0.707242 0.266622 0.704732 0.159511 0.707242 0.266622 0.707242 0.238131 0.687325 0.159511 0.687325 0.159511 0.704732 0.238131 0.687325 0.159511 0.704732 0.266622 0.704732 0.2255949 0.669918 0.159511 0.669918 0.159511 0.687325 0.2255949 0.669918 0.159511 0.687325 0.238131 0.687325 0.159511 0.746655 0.225596 0.746655 0.238133 0.729248 0.159511 0.746655 0.238133 0.729248 0.159511 0.729248 0.536491 0.826873 0.536491 0.809466 0.523757 0.809466 0.536491 0.826873 0.523757 0.809466 0.523757 0.826873 0.541267 0.750136 0.554001 0.750136 0.554001 0.732729 0.541267 0.750136 0.554001 0.732729 0.541267 0.732729 0.518981 0.725956 0.518981 0.679136 0.506247 0.679136 0.518981 0.725956 0.506247 0.679136 0.506247 0.725956 0.541267 0.715322 0.554001 0.715322 0.554001 0.712813 0.541267 0.715322 0.554001 0.712813 0.541267 0.712813 0.523757 0.792059 0.536491 0.792059 0.536491 0.789549 0.523757 0.792059 0.536491 0.789549 0.523757 0.789549 0.159511 0.711841 0.266625 0.711841 0.266625 0.709331 0.159511 0.711841 0.266625 0.709331 0.159511 0.709331 0.541267 0.767543 0.541267 0.78495 0.554001 0.78495 0.541267 0.767543 0.554001 0.78495 0.554001 0.767543 0.536491 0.84428 0.523757 0.84428 0.523757 0.861687 0.536491 0.84428 0.523757 0.861687 0.536491 0.861687 0.159511 0.764062 0.159511 0.781469 0.266625 0.781469 0.159511 0.764062 0.266625 0.781469 0.238133 0.764062 0.266622 0.635104 0.266622 0.632595 0.159511 0.632595 0.266622 0.635104 0.159511 0.632595 0.159511 0.635104 0.238131 0.652511 0.266622 0.635104 0.159511 0.635104 0.238131 0.652511 0.159511 0.635104 0.159511 0.652511 0.2255949 0.669918 0.238131 0.652511 0.159511 0.652511 0.2255949 0.669918 0.159511 0.652511 0.159511 0.669918 0.159511 0.746655 0.159511 0.764062 0.238133 0.764062 0.159511 0.746655 0.238133 0.764062 0.225596 0.746655 0.536491 0.826873 0.523757 0.826873 0.523757 0.84428 0.536491 0.826873 0.523757 0.84428 0.536491 0.84428 0.541267 0.750136 0.541267 0.767543 0.554001 0.767543 0.541267 0.750136 0.554001 0.767543 0.554001 0.750136 0.2932 0.771567 0.305935 0.771567 0.305935 0.724747 0.2932 0.771567 0.305935 0.724747 0.2932 0.724747 0.541267 0.78495 0.541267 0.78746 0.554001 0.78746 0.541267 0.78495 0.554001 0.78746 0.554001 0.78495 0.523757 0.861687 0.523757 0.864197 0.536491 0.864197 0.523757 0.861687 0.536491 0.864197 0.536491 0.861687 0.159511 0.781469 0.159511 0.783979 0.266625 0.783979 0.159511 0.781469 0.266625 0.783979 0.266625 0.781469 0.334344 0.733537 0.32822 0.733537 0.32822 0.771567 0.334344 0.733537 0.32822 0.771567 0.334344 0.771567 0.997612 0.998956 0.997612 0.911897 0.910609 0.911897 0.997612 0.998956 0.910609 0.911897 0.910609 0.998956 0.345244 0.733537 0.33912 0.733537 0.33912 0.771567 0.345244 0.733537 0.33912 0.771567 0.345244 0.771567 0.271401 0.773656 0.271401 0.860715 0.358406 0.860715 0.271401 0.773656 0.358406 0.860715 0.358406 0.773656 0.288424 0.684508 0.2823 0.684508 0.2823 0.771567 0.288424 0.684508 0.2823 0.771567 0.288424 0.771567 0.271401 0.771567 0.277525 0.771567 0.277525 0.684508 0.271401 0.771567 0.277525 0.684508 0.271401 0.684508 0.856273 0.5557 0.836269 0.5557 0.836269 0.998956 0.856273 0.5557 0.836269 0.998956 0.856273 0.998956 0.765326 0.998956 0.773285 0.998956 0.773285 0.556006 0.765326 0.998956 0.773285 0.556006 0.765326 0.556006 0.765326 0.998956 0.765326 0.556006 0.752591 0.556006 0.765326 0.998956 0.752591 0.556006 0.744632 0.556006 0.765326 0.998956 0.744632 0.556006 0.744632 0.998956 0.313204 0.719177 0.313204 0.713607 0.313204 0.710125 0.313204 0.719177 0.313204 0.710125 0.2932 0.710125 0.313204 0.719177 0.2932 0.710125 0.2932 0.713607 0.313204 0.719177 0.2932 0.713607 0.2932 0.719177 0.313204 0.719177 0.2932 0.719177 0.2932 0.722658 0.313204 0.719177 0.2932 0.722658 0.313204 0.722658 0.885829 0.998956 0.905833 0.998956 0.905833 0.555711 0.885829 0.998956 0.905833 0.555711 0.885829 0.555711 0.711203 0.556006 0.719162 0.998956 0.719163 0.556006 0.719162 0.998956 0.731897 0.998956 0.719163 0.556006 0.719163 0.556006 0.731897 0.998956 0.731897 0.556006 0.731897 0.998956 0.739856 0.998956 0.731897 0.556006 0.731897 0.556006 0.739856 0.998956 0.739856 0.556006 0.719162 0.998956 0.711203 0.556006 0.711203 0.998956 0.831493 0.998956 0.831493 0.5557 0.811489 0.5557 0.831493 0.998956 0.811489 0.5557 0.811489 0.998955 0.77806 0.556006 0.78602 0.998956 0.78602 0.556006 0.78602 0.998956 0.798754 0.998956 0.78602 0.556006 0.78602 0.556006 0.798754 0.998956 0.798754 0.556006 0.798754 0.998956 0.806713 0.998956 0.798754 0.556006 0.798754 0.556006 0.806713 0.998956 0.806713 0.556006 0.78602 0.998956 0.77806 0.556006 0.77806 0.998956 0.483961 0.725956 0.483961 0.716905 0.463957 0.713423 0.483961 0.725956 0.463957 0.713423 0.463957 0.716905 0.483961 0.725956 0.463957 0.716905 0.463957 0.722475 0.483961 0.725956 0.463957 0.722475 0.463957 0.725956 0.463957 0.713423 0.483961 0.716905 0.483961 0.713423 0.881053 0.998956 0.881053 0.555711 0.861049 0.555711 0.881053 0.998956 0.861049 0.555711 0.861049 0.998956 0.698469 0.998956 0.706428 0.998956 0.706428 0.556006 0.698469 0.998956 0.706428 0.556006 0.698469 0.556006 0.698469 0.998956 0.698469 0.556006 0.685734 0.556006 0.698469 0.998956 0.685734 0.556006 0.677775 0.556006 0.698469 0.998956 0.677775 0.556006 0.677775 0.998956 0.698469 0.998956 0.677775 0.998956 0.685734 0.998956 0.558777 0.732729 0.571512 0.732729 0.571512 0.715322 0.558777 0.732729 0.571512 0.715322 0.558777 0.715322 0.571512 0.809466 0.571512 0.792059 0.558777 0.792059 0.571512 0.809466 0.558777 0.792059 0.558777 0.809466 0.159511 0.805984 0.238133 0.805984 0.266625 0.788577 0.159511 0.805984 0.266625 0.788577 0.159511 0.788577 0.44841 0.577082 0.555521 0.577082 0.555521 0.574572 0.44841 0.577082 0.555521 0.574572 0.44841 0.574572 0.476901 0.594489 0.555521 0.594489 0.555521 0.577082 0.476901 0.594489 0.555521 0.577082 0.44841 0.577082 0.489438 0.611896 0.555521 0.611896 0.555521 0.594489 0.489438 0.611896 0.555521 0.594489 0.476901 0.594489 0.159511 0.823391 0.225596 0.823391 0.238133 0.805984 0.159511 0.823391 0.238133 0.805984 0.159511 0.805984 0.571512 0.826873 0.571512 0.809466 0.558777 0.809466 0.571512 0.826873 0.558777 0.809466 0.558777 0.826873 0.558777 0.750136 0.571512 0.750136 0.571512 0.732729 0.558777 0.750136 0.571512 0.732729 0.558777 0.732729 0.09419 0.984303 0.09476196 0.937484 0.08680295 0.937465 0.09419 0.984303 0.08680295 0.937465 0.08623099 0.984285 0.558777 0.715322 0.571512 0.715322 0.571512 0.712813 0.558777 0.715322 0.571512 0.712813 0.558777 0.712813 0.558777 0.792059 0.571512 0.792059 0.571512 0.789549 0.558777 0.792059 0.571512 0.789549 0.558777 0.789549 0.159511 0.788577 0.266625 0.788577 0.266625 0.786068 0.159511 0.788577 0.266625 0.786068 0.159511 0.786068 0.02836298 0.01633501 0.01562798 0.01636397 0.007668972 0.01638299 0.02836298 0.01633501 0.007668972 0.01638299 0.008239984 0.06320202 0.02836298 0.01633501 0.008239984 0.06320202 0.01619899 0.06318402 0.02836298 0.01633501 0.01619899 0.06318402 0.028934 0.06315398 0.02836298 0.01633501 0.028934 0.06315398 0.03689295 0.06313598 0.02836298 0.01633501 0.03689295 0.06313598 0.03632199 0.01631599 0.648219 0.06265401 0.648219 0.01580101 0.628215 0.01580101 0.648219 0.06265401 0.628215 0.01580101 0.628215 0.06265401 0.107496 0.937513 0.106925 0.984333 0.114884 0.984351 0.107496 0.937513 0.114884 0.984351 0.115455 0.937532 0.598659 0.98435 0.598659 0.937499 0.578655 0.937499 0.598659 0.98435 0.578655 0.937499 0.578655 0.98435 0.598659 0.98435 0.578655 0.98435 0.581512 0.998956 0.598659 0.98435 0.581512 0.998956 0.595801 0.998956 0.648219 0.518762 0.628215 0.518762 0.628215 0.998956 0.648219 0.518762 0.628215 0.998956 0.648219 0.998956 0.03689295 0.06313598 0.028934 0.06315398 0.03103995 0.519034 0.028934 0.06315398 0.01619899 0.06318402 0.03103995 0.519034 0.03103995 0.519034 0.01619899 0.06318402 0.002388 0.519101 0.01619899 0.06318402 0.008239984 0.06320202 0.002388 0.519101 0.578655 0.937499 0.598659 0.937499 0.598659 0.481226 0.578655 0.937499 0.598659 0.481226 0.578655 0.481226 0.002388 0.519101 0.008240997 0.998956 0.0162 0.998937 0.002388 0.519101 0.0162 0.998937 0.028934 0.998907 0.002388 0.519101 0.028934 0.998907 0.03689295 0.998889 0.002388 0.519101 0.03689295 0.998889 0.03103995 0.519034 0.648219 0.06265401 0.628215 0.06265401 0.628215 0.518762 0.648219 0.06265401 0.628215 0.518762 0.648219 0.518762 0.463957 0.707853 0.463957 0.711335 0.483961 0.711335 0.463957 0.707853 0.483961 0.711335 0.483961 0.702283 0.463957 0.707853 0.483961 0.702283 0.483961 0.698802 0.463957 0.707853 0.483961 0.698802 0.463957 0.698802 0.463957 0.707853 0.463957 0.698802 0.463957 0.702283 0.483961 0.702283 0.483961 0.711335 0.483961 0.707853 0.578655 0.481226 0.598659 0.481226 0.598659 0.001043975 0.578655 0.481226 0.598659 0.001043975 0.578655 0.001044988 0.09476196 0.937484 0.107496 0.937513 0.109602 0.481634 0.09476196 0.937484 0.109602 0.481634 0.08094996 0.481567 0.09476196 0.937484 0.08094996 0.481567 0.08680295 0.937465 0.109602 0.481634 0.107496 0.937513 0.115455 0.937532 0.08094996 0.481567 0.109602 0.481634 0.115455 0.001779019 0.08094996 0.481567 0.115455 0.001779019 0.107496 0.001760005 0.08094996 0.481567 0.107496 0.001760005 0.09476196 0.001730024 0.08094996 0.481567 0.09476196 0.001730024 0.08680295 0.001712024 0.35002 0.754061 0.35002 0.760526 0.364309 0.760526 0.35002 0.754061 0.364309 0.760526 0.364309 0.758039 0.35002 0.754061 0.364309 0.758039 0.364309 0.754061 0.35002 0.754061 0.364309 0.754061 0.364309 0.751574 0.35002 0.754061 0.364309 0.751574 0.35002 0.751574 0.114884 0.984351 0.106925 0.984333 0.104928 0.998942 0.114884 0.984351 0.104928 0.998942 0.110613 0.998956 0.007668972 0.01638299 0.01562798 0.01636397 0.01726895 0.001745998 0.007668972 0.01638299 0.01726895 0.001745998 0.01158398 0.001760005 0.628215 0.01580101 0.648219 0.01580101 0.645362 0.001197993 0.628215 0.01580101 0.645362 0.001197993 0.631073 0.001197993 0.01562798 0.01636397 0.02836298 0.01633501 0.02636498 0.001725018 0.01562798 0.01636397 0.02636498 0.001725018 0.01726895 0.001745998 0.106925 0.984333 0.09419 0.984303 0.09583097 0.998921 0.106925 0.984333 0.09583097 0.998921 0.104928 0.998942 0.02836298 0.01633501 0.03632199 0.01631599 0.03205096 0.001712024 0.02836298 0.01633501 0.03205096 0.001712024 0.02636498 0.001725018 0.09419 0.984303 0.08623099 0.984285 0.090146 0.998908 0.09419 0.984303 0.090146 0.998908 0.09583097 0.998921 0.558777 0.767543 0.558777 0.78495 0.571512 0.78495 0.558777 0.767543 0.571512 0.78495 0.571512 0.767543 0.571512 0.84428 0.558777 0.84428 0.558777 0.861687 0.571512 0.84428 0.558777 0.861687 0.571512 0.861687 0.159511 0.840798 0.159511 0.858206 0.266625 0.858206 0.159511 0.840798 0.266625 0.858206 0.238133 0.840799 0.44841 0.64671 0.44841 0.64922 0.555521 0.64922 0.44841 0.64671 0.555521 0.64922 0.555521 0.64671 0.476901 0.629303 0.44841 0.64671 0.555521 0.64671 0.476901 0.629303 0.555521 0.64671 0.555521 0.629303 0.489438 0.611896 0.476901 0.629303 0.555521 0.629303 0.489438 0.611896 0.555521 0.629303 0.555521 0.611896 0.159511 0.823391 0.159511 0.840798 0.238133 0.840799 0.159511 0.823391 0.238133 0.840799 0.225596 0.823391 0.571512 0.826873 0.558777 0.826873 0.558777 0.84428 0.571512 0.826873 0.558777 0.84428 0.571512 0.84428 0.558777 0.750136 0.558777 0.767543 0.571512 0.767543 0.558777 0.750136 0.571512 0.767543 0.571512 0.750136 0.05490899 0.01636397 0.04694998 0.01638299 0.04752099 0.06320297 0.05490899 0.01636397 0.04752099 0.06320297 0.05548 0.06318402 0.558777 0.78495 0.558777 0.78746 0.571512 0.78746 0.558777 0.78495 0.571512 0.78746 0.571512 0.78495 0.558777 0.861687 0.558777 0.864197 0.571512 0.864197 0.558777 0.861687 0.571512 0.864197 0.571512 0.861687 0.159511 0.858206 0.159511 0.860715 0.266625 0.860715 0.159511 0.858206 0.266625 0.860715 0.266625 0.858206 0.154165 0.984351 0.146777 0.937513 0.146206 0.984333 0.146777 0.937513 0.134042 0.937484 0.146206 0.984333 0.146206 0.984333 0.134042 0.937484 0.133471 0.984303 0.134042 0.937484 0.126083 0.937465 0.133471 0.984303 0.133471 0.984303 0.126083 0.937465 0.125512 0.984285 0.146777 0.937513 0.154165 0.984351 0.154736 0.937532 0.672999 0.9375 0.652995 0.9375 0.652995 0.984352 0.672999 0.9375 0.652995 0.984352 0.672999 0.984352 0.06821495 0.06315398 0.07617396 0.06313598 0.075603 0.01631599 0.06821495 0.06315398 0.075603 0.01631599 0.067644 0.01633501 0.623439 0.01564997 0.603435 0.01564997 0.603435 0.06250101 0.623439 0.01564997 0.603435 0.06250101 0.623439 0.06250101 0.623439 0.01564997 0.620581 0.001043975 0.606292 0.001043975 0.623439 0.01564997 0.606292 0.001043975 0.603435 0.01564997 0.672999 0.481391 0.672999 0.001197993 0.652995 0.001197993 0.672999 0.481391 0.652995 0.001197993 0.652995 0.481391 0.134042 0.937484 0.146777 0.937513 0.148883 0.481634 0.134042 0.937484 0.148883 0.481634 0.120231 0.481567 0.134042 0.937484 0.120231 0.481567 0.126083 0.937465 0.148883 0.481634 0.146777 0.937513 0.154736 0.937532 0.603435 0.06250101 0.603435 0.518774 0.623439 0.518774 0.603435 0.06250101 0.623439 0.518774 0.623439 0.06250101 0.120231 0.481567 0.148883 0.481634 0.154736 0.001779019 0.120231 0.481567 0.154736 0.001779019 0.146777 0.001760005 0.120231 0.481567 0.146777 0.001760005 0.134042 0.001730024 0.120231 0.481567 0.134042 0.001730024 0.126083 0.001712024 0.672999 0.9375 0.672999 0.481391 0.652995 0.481391 0.672999 0.9375 0.652995 0.481391 0.652995 0.9375 0.523757 0.707242 0.523757 0.710724 0.523757 0.701672 0.523757 0.710724 0.543761 0.710724 0.523757 0.701672 0.523757 0.701672 0.543761 0.710724 0.523757 0.698191 0.543761 0.710724 0.543761 0.707242 0.523757 0.698191 0.523757 0.698191 0.543761 0.707242 0.543761 0.701672 0.523757 0.698191 0.543761 0.701672 0.543761 0.698191 0.603435 0.518774 0.603435 0.998956 0.623439 0.998956 0.603435 0.518774 0.623439 0.998956 0.623439 0.518774 0.07617396 0.06313598 0.06821495 0.06315398 0.07032096 0.519034 0.06821495 0.06315398 0.05548 0.06318402 0.07032096 0.519034 0.07032096 0.519034 0.05548 0.06318402 0.04166895 0.519101 0.05548 0.06318402 0.04752099 0.06320297 0.04166895 0.519101 0.04166895 0.519101 0.04752194 0.998956 0.05548095 0.998937 0.04166895 0.519101 0.05548095 0.998937 0.06821495 0.998907 0.04166895 0.519101 0.06821495 0.998907 0.07617396 0.998889 0.04166895 0.519101 0.07617396 0.998889 0.07032096 0.519034 0.573879 0.866286 0.373063 0.866286 0.373063 0.998956 0.573879 0.866286 0.373063 0.998956 0.573879 0.998956 0.385801 0.864197 0.443634 0.864197 0.443634 0.728045 0.385801 0.864197 0.443634 0.728045 0.385801 0.728045 0.506243 0.728045 0.44841 0.728045 0.44841 0.864197 0.506243 0.728045 0.44841 0.864197 0.506243 0.864197 0.368287 0.862804 0.159511 0.862804 0.159511 0.998956 0.368287 0.862804 0.159511 0.998956 0.368287 0.998956 0.96848 0.818487 0.910609 0.818487 0.910609 0.909808 0.96848 0.818487 0.910609 0.909808 0.96848 0.909808 0.518981 0.729786 0.506243 0.728045 0.506243 0.864197 0.518981 0.729786 0.506243 0.864197 0.518981 0.862456 0.981138 0.820228 0.96848 0.818487 0.96848 0.909808 0.981138 0.820228 0.96848 0.909808 0.981138 0.908067 0.373063 0.862456 0.385801 0.864197 0.385801 0.728045 0.373063 0.862456 0.385801 0.728045 0.373063 0.729786 0.981134 0.726818 0.968482 0.725078 0.968482 0.816398 0.981134 0.726818 0.968482 0.816398 0.981134 0.814658 0.968482 0.725078 0.910609 0.725078 0.910609 0.816398 0.968482 0.725078 0.910609 0.816398 0.968482 0.816398 0.35002 0.769081 0.35002 0.771567 0.364309 0.771567 0.35002 0.769081 0.364309 0.771567 0.364309 0.769081 0.35002 0.769081 0.364309 0.769081 0.364309 0.765102 0.35002 0.769081 0.364309 0.765102 0.364309 0.762615 0.35002 0.769081 0.364309 0.762615 0.35002 0.762615 0.075603 0.01631599 0.07133096 0.001712024 0.06564599 0.001725018 0.075603 0.01631599 0.06564599 0.001725018 0.067644 0.01633501 0.125512 0.984285 0.129427 0.998908 0.135112 0.998921 0.125512 0.984285 0.135112 0.998921 0.133471 0.984303 0.652995 0.984352 0.655853 0.998956 0.670142 0.998956 0.652995 0.984352 0.670142 0.998956 0.672999 0.984352 0.133471 0.984303 0.135112 0.998921 0.144208 0.998942 0.133471 0.984303 0.144208 0.998942 0.146206 0.984333 0.067644 0.01633501 0.06564599 0.001725018 0.05654996 0.001745998 0.067644 0.01633501 0.05654996 0.001745998 0.05490899 0.01636397 0.146206 0.984333 0.144208 0.998942 0.149893 0.998956 0.146206 0.984333 0.149893 0.998956 0.154165 0.984351 0.05490899 0.01636397 0.05654996 0.001745998 0.05086499 0.001760005 0.05490899 0.01636397 0.05086499 0.001760005 0.04694998 0.01638299</float_array>
          <technique_common>
            <accessor source="#Object_0-mesh-map-0-array" count="1068" stride="2">
              <param name="S" type="float"/>
              <param name="T" type="float"/>
            </accessor>
          </technique_common>
        </source>
        <vertices id="Object_0-mesh-vertices">
          <input semantic="POSITION" source="#Object_0-mesh-positions"/>
        </vertices>
        <triangles material="Material_001-material" count="356">
          <input semantic="VERTEX" source="#Object_0-mesh-vertices" offset="0"/>
          <input semantic="NORMAL" source="#Object_0-mesh-normals" offset="1"/>
          <input semantic="TEXCOORD" source="#Object_0-mesh-map-0" offset="2" set="0"/>
          <p>0 0 0 1 0 1 2 0 2 0 0 3 2 0 4 3 0 5 4 1 6 5 2 7 6 3 8 4 1 9 6 3 10 7 4 11 8 5 12 9 5 13 10 5 14 8 6 15 10 6 16 11 6 17 12 7 18 13 7 19 14 7 20 12 7 21 14 7 22 15 7 23 16 7 24 17 7 25 13 7 26 16 7 27 13 7 28 12 7 29 18 7 30 19 7 31 17 7 32 18 8 33 17 8 34 16 8 35 20 9 36 21 9 37 9 9 38 20 6 39 9 6 40 8 6 41 22 10 42 4 1 43 7 4 44 22 10 45 7 4 46 23 11 47 24 0 48 25 0 49 1 0 50 24 12 51 1 12 52 0 12 53 26 13 54 27 13 55 28 13 56 26 14 57 28 14 58 29 14 59 3 0 60 2 0 61 30 0 62 3 15 63 30 15 64 31 15 65 6 3 66 5 2 67 32 16 68 6 3 69 32 16 70 33 16 71 11 6 72 10 6 73 34 6 74 11 6 75 34 6 76 35 6 77 36 0 78 37 0 79 38 0 80 36 0 81 38 0 82 39 0 83 40 17 84 41 18 85 42 19 86 40 17 87 42 19 88 43 20 89 44 6 90 45 6 91 46 6 92 44 21 93 46 21 94 47 21 95 48 7 96 49 7 97 50 7 98 48 7 99 50 7 100 51 7 101 52 7 102 48 7 103 51 7 104 52 7 105 51 7 106 53 7 107 18 22 108 52 22 109 53 22 110 18 7 111 53 7 112 19 7 113 20 6 114 44 6 115 47 6 116 20 23 117 47 23 118 21 23 119 22 10 120 23 11 121 41 18 122 22 10 123 41 18 124 40 17 125 24 24 126 36 24 127 39 24 128 24 0 129 39 0 130 25 0 131 54 25 132 55 25 133 56 25 134 54 26 135 56 26 136 57 26 137 37 27 138 58 27 139 59 27 140 37 0 141 59 0 142 38 0 143 42 19 144 60 16 145 61 16 146 42 19 147 61 16 148 43 20 149 45 6 150 62 6 151 63 6 152 45 6 153 63 6 154 46 6 155 64 0 156 65 0 157 66 0 158 64 0 159 66 0 160 67 0 161 68 28 162 69 29 163 70 30 164 68 28 165 70 30 166 71 31 167 72 32 168 73 32 169 74 32 170 72 6 171 74 6 172 75 6 173 76 7 174 77 7 175 78 7 176 76 7 177 78 7 178 79 7 179 80 7 180 81 7 181 77 7 182 80 33 183 77 33 184 76 33 185 82 7 186 83 7 187 81 7 188 82 34 189 81 34 190 80 34 191 84 35 192 85 35 193 73 35 194 84 6 195 73 6 196 72 6 197 86 36 198 68 28 199 71 31 200 86 36 201 71 31 202 87 11 203 88 0 204 89 0 205 65 0 206 88 37 207 65 37 208 64 37 209 90 13 210 91 13 211 92 13 212 90 38 213 92 38 214 93 38 215 67 0 216 66 0 217 94 0 218 67 39 219 94 39 220 95 39 221 70 30 222 69 29 223 96 16 224 70 30 225 96 16 226 97 16 227 75 6 228 74 6 229 98 6 230 75 6 231 98 6 232 99 6 233 100 0 234 101 0 235 102 0 236 100 0 237 102 0 238 103 0 239 104 40 240 105 41 241 106 42 242 104 40 243 106 42 244 107 43 245 108 6 246 109 6 247 110 6 248 108 44 249 110 44 250 111 44 251 112 7 252 113 7 253 114 7 254 112 7 255 114 7 256 115 7 257 116 45 258 112 45 259 115 45 260 116 7 261 115 7 262 117 7 263 82 22 264 116 22 265 117 22 266 82 7 267 117 7 268 83 7 269 84 6 270 108 6 271 111 6 272 84 46 273 111 46 274 85 46 275 86 36 276 87 11 277 105 41 278 86 36 279 105 41 280 104 40 281 88 47 282 100 47 283 103 47 284 88 0 285 103 0 286 89 0 287 118 48 288 119 48 289 120 48 290 118 26 291 120 26 292 121 26 293 101 49 294 122 49 295 123 49 296 101 0 297 123 0 298 102 0 299 106 42 300 124 16 301 125 16 302 106 42 303 125 16 304 107 43 305 109 6 306 126 6 307 127 6 308 109 6 309 127 6 310 110 6 311 128 13 312 129 13 313 130 13 314 128 13 315 130 13 316 131 13 317 132 7 318 133 7 319 134 7 320 132 7 321 134 7 322 135 7 323 136 26 324 137 26 325 138 26 326 136 26 327 138 26 328 139 26 329 140 6 330 141 6 331 142 6 332 140 6 333 142 6 334 143 6 335 144 0 336 145 0 337 146 0 338 144 0 339 146 0 340 147 0 341 148 16 342 149 16 343 150 16 344 148 16 345 150 16 346 151 16 347 152 6 348 153 6 349 154 6 350 152 6 351 154 6 352 155 6 353 156 50 354 157 50 355 158 50 356 156 51 357 158 51 358 159 51 359 156 52 360 159 52 361 160 52 362 156 53 363 160 53 364 161 53 365 156 54 366 161 54 367 162 54 368 163 0 369 164 0 370 165 0 371 163 0 372 165 0 373 166 0 374 163 0 375 166 0 376 167 0 377 163 0 378 167 0 379 168 0 380 163 0 381 168 0 382 169 0 383 163 0 384 169 0 385 170 0 386 171 55 387 172 55 388 173 55 389 171 55 390 173 55 391 174 55 392 175 56 393 176 56 394 177 56 395 176 57 396 178 57 397 177 57 398 177 58 399 178 58 400 179 58 401 178 59 402 180 59 403 179 59 404 179 60 405 180 60 406 181 60 407 176 61 408 175 61 409 182 61 410 183 6 411 184 6 412 185 6 413 183 6 414 185 6 415 186 6 416 187 62 417 188 62 418 189 62 419 188 63 420 190 63 421 189 63 422 189 64 423 190 64 424 191 64 425 190 65 426 192 65 427 191 65 428 191 66 429 192 66 430 193 66 431 188 67 432 187 67 433 194 67 434 195 0 435 196 0 436 197 0 437 195 0 438 197 0 439 198 0 440 195 0 441 198 0 442 199 0 443 195 0 444 199 0 445 200 0 446 197 0 447 196 0 448 201 0 449 202 68 450 203 68 451 204 68 452 202 69 453 204 69 454 205 69 455 206 70 456 207 70 457 208 70 458 206 71 459 208 71 460 209 71 461 206 72 462 209 72 463 210 72 464 206 73 465 210 73 466 211 73 467 206 74 468 211 74 469 212 74 470 456 16 471 457 16 472 213 16 473 214 0 474 215 0 475 216 0 476 214 0 477 216 0 478 217 0 479 218 75 480 219 29 481 220 76 482 218 75 483 220 76 484 221 77 485 222 78 486 223 78 487 224 78 488 222 6 489 224 6 490 225 6 491 226 7 492 227 7 493 228 7 494 226 7 495 228 7 496 229 7 497 230 7 498 231 7 499 227 7 500 230 7 501 227 7 502 226 7 503 232 7 504 233 7 505 231 7 506 232 7 507 231 7 508 230 7 509 234 79 510 235 79 511 223 79 512 234 6 513 223 6 514 222 6 515 236 80 516 218 75 517 221 77 518 236 80 519 221 77 520 237 11 521 238 0 522 239 0 523 215 0 524 238 81 525 215 81 526 214 81 527 240 82 528 241 83 529 242 84 530 240 82 531 242 84 532 243 85 533 217 0 534 216 0 535 244 0 536 217 86 537 244 86 538 245 86 539 220 76 540 219 29 541 246 16 542 220 76 543 246 16 544 247 16 545 225 6 546 224 6 547 248 6 548 225 6 549 248 6 550 249 6 551 250 16 552 251 16 553 252 16 554 449 87 555 446 88 556 253 89 557 449 87 558 253 89 559 254 90 560 449 87 561 254 90 562 255 91 563 449 87 564 255 91 565 256 13 566 449 87 567 256 13 568 257 92 569 258 93 570 259 94 571 260 95 572 258 93 573 260 95 574 261 96 575 262 26 576 263 97 577 264 98 578 262 26 579 264 98 580 265 26 581 266 99 582 267 100 583 268 101 584 266 99 585 268 101 586 269 102 587 266 99 588 269 102 589 270 103 590 266 99 591 270 103 592 271 104 593 272 105 594 273 106 595 274 107 596 272 105 597 274 107 598 275 108 599 256 109 600 255 109 601 276 109 602 255 110 603 254 110 604 276 110 605 276 111 606 254 111 607 277 111 608 254 112 609 253 112 610 277 112 611 268 101 612 267 100 613 278 113 614 268 101 615 278 113 616 279 114 617 277 115 618 280 115 619 281 115 620 277 116 621 281 116 622 282 116 623 277 117 624 282 117 625 283 117 626 277 118 627 283 118 628 276 118 629 258 93 630 261 96 631 273 106 632 258 93 633 273 106 634 272 105 635 284 0 636 285 0 637 286 0 638 284 119 639 286 119 640 287 119 641 284 0 642 287 0 643 288 0 644 284 0 645 288 0 646 289 0 647 284 0 648 289 0 649 290 0 650 287 0 651 286 0 652 291 0 653 279 114 654 278 113 655 292 7 656 279 114 657 292 7 658 293 7 659 241 120 660 262 120 661 294 120 662 241 121 663 294 121 664 295 121 665 241 122 666 295 122 667 242 122 668 294 123 669 262 123 670 265 123 671 295 124 672 294 124 673 296 124 674 295 125 675 296 125 676 297 125 677 295 126 678 297 126 679 298 126 680 295 127 681 298 127 682 299 127 683 300 128 684 301 128 685 302 128 686 300 129 687 302 129 688 303 129 689 300 130 690 303 130 691 304 130 692 300 131 693 304 131 694 305 131 695 300 132 696 305 132 697 306 132 698 264 98 699 263 97 700 307 133 701 264 98 702 307 133 703 308 134 704 447 135 705 448 135 706 309 135 707 447 136 708 309 136 709 310 136 710 260 95 711 259 94 712 311 137 713 260 95 714 311 137 715 312 138 716 448 139 717 449 87 718 313 140 719 448 141 720 313 141 721 309 141 722 263 97 723 240 82 724 314 142 725 263 97 726 314 142 727 307 133 728 449 87 729 257 92 730 315 143 731 449 87 732 315 143 733 313 140 734 240 82 735 243 85 736 316 144 737 240 82 738 316 144 739 314 142 740 317 0 741 318 0 742 319 0 743 317 0 744 319 0 745 320 0 746 321 145 747 322 146 748 323 147 749 321 145 750 323 147 751 324 43 752 325 6 753 326 6 754 327 6 755 325 32 756 327 32 757 328 32 758 329 7 759 330 7 760 331 7 761 329 7 762 331 7 763 332 7 764 333 7 765 329 7 766 332 7 767 333 7 768 332 7 769 334 7 770 232 7 771 333 7 772 334 7 773 232 7 774 334 7 775 233 7 776 234 6 777 325 6 778 328 6 779 234 148 780 328 148 781 235 148 782 236 80 783 237 11 784 322 146 785 236 80 786 322 146 787 321 145 788 238 149 789 317 149 790 320 149 791 238 0 792 320 0 793 239 0 794 335 150 795 336 151 796 337 152 797 335 150 798 337 152 799 338 153 800 318 154 801 339 154 802 340 154 803 318 0 804 340 0 805 319 0 806 323 147 807 341 16 808 342 16 809 323 147 810 342 16 811 324 43 812 326 6 813 343 6 814 344 6 815 326 6 816 344 6 817 327 6 818 345 155 819 346 156 820 347 157 821 346 156 822 348 156 823 347 157 824 347 157 825 348 156 826 349 158 827 348 156 828 350 26 829 349 158 830 349 158 831 350 26 832 351 159 833 346 156 834 345 155 835 352 26 836 353 160 837 354 161 838 355 162 839 353 160 840 355 162 841 356 163 842 357 13 843 358 13 844 359 164 845 357 13 846 359 164 847 360 165 848 361 166 849 362 167 850 363 168 851 361 166 852 363 168 853 364 169 854 361 166 855 365 170 856 366 171 857 361 166 858 366 171 859 362 167 860 367 172 861 368 173 862 369 173 863 367 172 864 369 173 865 370 174 866 348 175 867 346 175 868 371 175 869 348 176 870 371 176 871 372 176 872 348 177 873 372 177 874 350 177 875 371 178 876 346 178 877 352 178 878 363 168 879 373 179 880 374 180 881 363 168 882 374 180 883 364 169 884 372 181 885 371 181 886 375 181 887 372 182 888 375 182 889 376 182 890 372 183 891 376 183 892 377 183 893 372 184 894 377 184 895 378 184 896 353 160 897 367 172 898 370 174 899 353 160 900 370 174 901 354 161 902 379 0 903 380 0 904 381 0 905 380 0 906 382 0 907 381 0 908 381 0 909 382 0 910 383 0 911 382 0 912 384 0 913 383 0 914 383 185 915 384 185 916 385 185 917 383 0 918 385 0 919 386 0 920 373 179 921 387 7 922 388 7 923 373 179 924 388 7 925 374 180 926 358 186 927 357 186 928 389 186 929 357 187 930 338 187 931 389 187 932 389 188 933 338 188 934 390 188 935 338 189 936 337 189 937 390 189 938 390 190 939 391 190 940 392 190 941 390 191 942 392 191 943 393 191 944 390 190 945 393 190 946 394 190 947 390 192 948 394 192 949 389 192 950 395 193 951 396 194 952 397 195 953 395 193 954 397 195 955 398 196 956 399 13 957 400 13 958 401 13 959 399 13 960 401 13 961 402 13 962 403 26 963 404 26 964 405 26 965 403 26 966 405 26 967 406 26 968 407 0 969 408 0 970 409 0 971 407 0 972 409 0 973 410 0 974 411 7 975 412 7 976 413 7 977 411 7 978 413 7 979 414 7 980 415 197 981 454 198 982 450 199 983 415 197 984 450 199 985 416 200 986 417 201 987 451 202 988 452 203 989 417 201 990 452 203 991 418 204 992 419 205 993 453 206 994 444 207 995 419 205 996 444 207 997 420 208 998 421 209 999 422 210 1000 423 211 1001 421 209 1002 423 211 1003 424 212 1004 445 6 1005 425 6 1006 426 6 1007 445 6 1008 426 6 1009 455 6 1010 427 213 1011 428 213 1012 429 213 1013 427 214 1014 429 214 1015 430 214 1016 427 215 1017 430 215 1018 431 215 1019 427 216 1020 431 216 1021 432 216 1022 427 217 1023 432 217 1024 433 217 1025 359 164 1026 434 218 1027 435 219 1028 359 164 1029 435 219 1030 360 165 1031 351 159 1032 436 220 1033 437 221 1034 351 159 1035 437 221 1036 349 158 1037 355 162 1038 438 222 1039 439 223 1040 355 162 1041 439 223 1042 356 163 1043 349 158 1044 437 221 1045 440 224 1046 349 158 1047 440 224 1048 347 157 1049 360 165 1050 435 219 1051 441 225 1052 360 165 1053 441 225 1054 335 150 1055 347 157 1056 440 224 1057 442 226 1058 347 157 1059 442 226 1060 345 155 1061 335 150 1062 441 225 1063 443 227 1064 335 150 1065 443 227 1066 336 151 1067</p>
        </triangles>
      </mesh>
    </geometry>
  </library_geometries>
  <library_visual_scenes>
    <visual_scene id="Scene" name="Scene">
      <node id="Sketchfab_model" name="Sketchfab_model" type="NODE">
        <matrix sid="transform">1 0 0 0 0 -1.34359e-7 1 0 0 -1 -1.34359e-7 0 0 0 0 1</matrix>
        <node id="_ef6c57bca7a4b4b9c9f514afd5ed83f_obj_cleaner_gles" name="6ef6c57bca7a4b4b9c9f514afd5ed83f.obj.cleaner.gles" type="NODE">
          <matrix sid="transform">1 0 0 -1.876865 0 1 0 8.20461 0 0 1 -0.18 0 0 0 1</matrix>
          <node id="Object_2" name="Object_2" type="NODE">
            <matrix sid="transform">1 0 0 0 0 1 0 2.41847e-8 0 0 1 -1.49012e-8 0 0 0 1</matrix>
            <node id="Object_3" name="Object_3" type="NODE">
              <matrix sid="transform">1 0 0 0 0 1 0 2.41847e-8 0 0 1 -1.49012e-8 0 0 0 1</matrix>
              <instance_geometry url="#Object_0-mesh" name="Object_3">
                <bind_material>
                  <technique_common>
                    <instance_material symbol="Material_001-material" target="#Material_001-material">
                      <bind_vertex_input semantic="UVMap" input_semantic="TEXCOORD" input_set="0"/>
                    </instance_material>
                  </technique_common>
                </bind_material>
              </instance_geometry>
            </node>
          </node>
        </node>
      </node>
    </visual_scene>
  </library_visual_scenes>
  <scene>
    <instance_visual_scene url="#Scene"/>
  </scene>
</COLLADA>